<svg width="17" height="16" viewBox="0 0 17 16" fill="none" xmlns="http://www.w3.org/2000/svg">
<path fill-rule="evenodd" clip-rule="evenodd" d="M7.265 5.076C7.11087 4.97967 6.91659 4.97457 6.75762 5.06268C6.59864 5.15079 6.5 5.31824 6.5 5.5V10.5C6.5 10.6818 6.59864 10.8492 6.75762 10.9373C6.91659 11.0254 7.11087 11.0203 7.265 10.924L11.265 8.424C11.4112 8.33263 11.5 8.17239 11.5 8C11.5 7.82761 11.4112 7.66737 11.265 7.576L7.265 5.076ZM10.0566 8L7.5 9.59788V6.40212L10.0566 8Z" fill="#0F0E11"/>
<path fill-rule="evenodd" clip-rule="evenodd" d="M8.49991 2L8.44588 2.00008C8.41083 2.00016 8.35944 2.00032 8.29371 2.00065C8.16226 2.00129 7.97339 2.00258 7.74318 2.00515C7.28296 2.01028 6.6565 2.02056 5.99259 2.04115C5.3295 2.06172 4.62487 2.09268 4.00958 2.13952C3.40878 2.18525 2.84918 2.24888 2.50225 2.3457L2.49508 2.34776C2.0864 2.46843 1.71799 2.69878 1.42594 3.01299C1.13403 3.32706 0.928478 3.71393 0.827798 4.13371C0.825299 4.14413 0.823136 4.15463 0.821312 4.16519C0.601849 5.43523 0.494431 6.72352 0.500383 8.01391C0.492719 9.31403 0.600145 10.6121 0.821315 11.8918C0.824019 11.9074 0.827468 11.9229 0.831648 11.9382C0.942692 12.3452 1.15301 12.7175 1.44441 13.0185C1.73594 13.3196 2.09896 13.5391 2.49938 13.6535L2.50225 13.6543C2.84918 13.7511 3.40878 13.8147 4.00958 13.8605C4.62487 13.9073 5.3295 13.9383 5.99259 13.9588C6.6565 13.9794 7.28296 13.9897 7.74318 13.9949C7.97339 13.9974 8.16226 13.9987 8.29371 13.9994C8.35944 13.9997 8.41083 13.9998 8.44588 13.9999L8.49972 14L8.55412 13.9999C8.58916 13.9998 8.64056 13.9997 8.70629 13.9994C8.83774 13.9987 9.02661 13.9974 9.25682 13.9949C9.71704 13.9897 10.3435 13.9794 11.0074 13.9588C11.6705 13.9383 12.3751 13.9073 12.9904 13.8605C13.5912 13.8147 14.1508 13.7511 14.4977 13.6543L14.5049 13.6522C14.9136 13.5316 15.282 13.3012 15.5741 12.987C15.866 12.6729 16.0715 12.2861 16.1722 11.8663C16.1747 11.8559 16.1769 11.8454 16.1787 11.8348C16.3965 10.5742 16.5039 9.29568 16.4996 8.01491C16.5073 6.71468 16.3999 5.41643 16.1787 4.1367C16.1769 4.12615 16.1747 4.11566 16.1722 4.10525C16.0715 3.68547 15.866 3.2986 15.5741 2.98453C15.282 2.67032 14.9136 2.43997 14.5049 2.3193C14.4989 2.31753 14.4929 2.31587 14.4868 2.31432C14.1439 2.22695 13.5881 2.16904 12.9871 2.12727C12.3728 2.08458 11.6688 2.05632 11.0061 2.03755C10.3425 2.01877 9.71637 2.00938 9.25634 2.0047C9.02623 2.00235 8.83745 2.00118 8.70608 2.00059C8.64038 2.00029 8.58903 2.00015 8.55402 2.00007L8.49991 2ZM8.49998 3L8.44819 3.00008C8.41395 3.00016 8.36342 3.00032 8.29861 3.00063C8.16896 3.00127 7.9822 3.00254 7.75434 3.00508C7.29841 3.01017 6.67892 3.02035 6.02358 3.04067C5.36742 3.06102 4.6795 3.09142 4.08548 3.13664C3.48001 3.18272 3.01515 3.24148 2.77468 3.30789C2.54285 3.37705 2.32995 3.50923 2.15841 3.6938C1.98915 3.8759 1.86628 4.10252 1.8038 4.35232C1.59615 5.55991 1.49457 6.78486 1.50038 8.01186L1.50041 8.01724C1.49299 9.25077 1.59407 10.4823 1.8024 11.6964C1.8713 11.9353 1.99585 12.1504 2.16285 12.3229C2.33433 12.5 2.54461 12.6261 2.77246 12.6915C3.01228 12.7582 3.47813 12.8171 4.08548 12.8634C4.6795 12.9086 5.36742 12.939 6.02358 12.9593C6.67892 12.9797 7.29841 12.9898 7.75434 12.9949C7.9822 12.9975 8.16896 12.9987 8.29861 12.9994C8.36342 12.9997 8.41395 12.9998 8.44819 12.9999L8.49985 13L8.55181 12.9999C8.58605 12.9998 8.63658 12.9997 8.7014 12.9994C8.83104 12.9987 9.0178 12.9975 9.24566 12.9949C9.70159 12.9898 10.3211 12.9797 10.9764 12.9593C11.6326 12.939 12.3205 12.9086 12.9145 12.8634C13.52 12.8173 13.9848 12.7585 14.2253 12.6921C14.4571 12.623 14.67 12.4908 14.8416 12.3062C15.0109 12.1241 15.1337 11.8975 15.1962 11.6477C15.4022 10.4492 15.5038 9.23368 15.4996 8.01595L15.4996 8.01122C15.507 6.77493 15.4055 5.5406 15.1962 4.32387C15.1337 4.07407 15.0109 3.84745 14.8416 3.66534C14.6714 3.48219 14.4604 3.35062 14.2307 3.28104C13.9847 3.21996 13.5186 3.16662 12.9178 3.12487C12.3229 3.08352 11.6342 3.05574 10.9778 3.03715C10.3221 3.01859 9.70226 3.00929 9.24614 3.00464C9.01818 3.00232 8.83133 3.00116 8.70161 3.00058C8.63675 3.00029 8.58618 3.00014 8.55191 3.00007L8.49998 3Z" fill="#0F0E11"/>
</svg>